<?xml version="1.0" encoding="iso-8859-1"?>
<!-- Generator: Adobe Illustrator 19.0.0, SVG Export Plug-In . SVG Version: 6.00 Build 0)  -->
<svg version="1.1" id="Layer_1" xmlns="http://www.w3.org/2000/svg" xmlns:xlink="http://www.w3.org/1999/xlink" x="0px" y="0px"
	 viewBox="0 0 496 496" style="enable-background:new 0 0 496 496;" xml:space="preserve">
<g>
	<g>
		<g>
			<path style="fill:#969FDC" d="M416,296v-80h48V28.944l20.424,10.208l7.16-14.312L456,7.056l-35.576,17.792l7.16,14.312L448,28.944V200h-32V72h-64V32
				H88c-4.416,0-8-3.584-8-8V0H0v296c0,22.056,17.944,40,40,40h168v128c0,17.648,14.352,32,32,32s32-14.352,32-32V336h104
				C398.056,336,416,318.056,416,296z M64,296c0,13.232-10.768,24-24,24s-24-10.768-24-24V16h48v8c0,13.232,10.768,24,24,24h248v24
				H64V296z M208,320H71.792c5.08-6.704,8.208-14.96,8.208-24V88h320v112h-64.408c-4.088-49.2-45.352-88-95.592-88
				c-52.936,0-96,43.064-96,96c0,41.704,26.776,77.176,64,90.4V320z M256,464c0,8.824-7.184,16-16,16c-8.824,0-16-7.176-16-16
				V302.552c5.216,0.88,10.536,1.448,16,1.448s10.784-0.568,16-1.448V464z M240,288c-44.112,0-80-35.888-80-80s35.888-80,80-80
				c41.408,0,75.568,31.632,79.592,72H303.44c-3.96-31.52-30.872-56-63.44-56c-35.288,0-64,28.712-64,64c0,35.288,28.712,64,64,64
				c32.576,0,59.488-24.48,63.44-56h16.152C315.56,256.368,281.408,288,240,288z M287.28,216c-3.824,22.664-23.536,40-47.28,40
				c-26.472,0-48-21.528-48-48s21.528-48,48-48c23.736,0,43.448,17.336,47.28,40H240v16H287.28z M272,298.4
				c34.816-12.36,60.424-44.2,63.592-82.4H400v80c0,13.232-10.768,24-24,24H272V298.4z"/>
			<rect style="fill:#969FDC" x="448" y="232" width="16" height="16"/>
			<rect style="fill:#969FDC" x="448" y="264" width="16" height="16"/>
			<rect style="fill:#969FDC" x="448" y="296" width="16" height="16"/>
			<path style="fill:#969FDC" d="M288,352v144h208V352H288z M480,480H304V368h176V480z"/>
			<rect style="fill:#969FDC" x="320" y="384" width="144" height="16"/>
			<rect style="fill:#969FDC" x="320" y="416" width="144" height="16"/>
			<rect style="fill:#969FDC" x="320" y="448" width="112" height="16"/>
			<rect style="fill:#969FDC" x="448" y="448" width="16" height="16"/>
			<path style="fill:#969FDC" d="M104,352c-39.704,0-72,32.296-72,72c0,39.704,32.296,72,72,72s72-32.296,72-72C176,384.296,143.704,352,104,352z
				 M104,480c-30.872,0-56-25.128-56-56c0-28.152,20.912-51.456,48-55.36V432h63.36C155.456,459.088,132.152,480,104,480z M112,416
				v-47.36c24.472,3.528,43.832,22.888,47.36,47.36H112z"/>
		</g>
	</g>
</g>
<g>
</g>
<g>
</g>
<g>
</g>
<g>
</g>
<g>
</g>
<g>
</g>
<g>
</g>
<g>
</g>
<g>
</g>
<g>
</g>
<g>
</g>
<g>
</g>
<g>
</g>
<g>
</g>
<g>
</g>
</svg>
